<mxfile host="65bd71144e">
    <diagram id="P3E_55pYlSo_qYcGJgf6" name="Page-1">
        <mxGraphModel dx="762" dy="422" grid="1" gridSize="10" guides="1" tooltips="1" connect="1" arrows="1" fold="1" page="1" pageScale="1" pageWidth="827" pageHeight="1169" math="0" shadow="0">
            <root>
                <mxCell id="0"/>
                <mxCell id="1" parent="0"/>
                <mxCell id="2" value="roles" style="swimlane;childLayout=stackLayout;horizontal=1;startSize=30;horizontalStack=0;rounded=1;fontSize=14;fontStyle=0;strokeWidth=2;resizeParent=0;resizeLast=1;shadow=0;dashed=0;align=center;" parent="1" vertex="1">
                    <mxGeometry x="315" y="40" width="160" height="80" as="geometry"/>
                </mxCell>
                <mxCell id="3" value="id INT PK&#10;name VARCHAR" style="align=left;strokeColor=none;fillColor=none;spacingLeft=4;fontSize=12;verticalAlign=top;resizable=0;rotatable=0;part=1;" parent="2" vertex="1">
                    <mxGeometry y="30" width="160" height="50" as="geometry"/>
                </mxCell>
                <mxCell id="10" value="users_friends" style="swimlane;childLayout=stackLayout;horizontal=1;startSize=30;horizontalStack=0;rounded=1;fontSize=14;fontStyle=0;strokeWidth=2;resizeParent=0;resizeLast=1;shadow=0;dashed=0;align=center;" parent="1" vertex="1">
                    <mxGeometry x="90" y="160" width="160" height="110" as="geometry"/>
                </mxCell>
                <mxCell id="12" style="edgeStyle=none;html=1;" parent="10" source="11" target="10" edge="1">
                    <mxGeometry relative="1" as="geometry"/>
                </mxCell>
                <mxCell id="11" value="id INT PK&#10;users_id1 INT FK&#10;users_id2 INT FK&#10;is_accepted BOOLEAN" style="align=left;strokeColor=none;fillColor=none;spacingLeft=4;fontSize=12;verticalAlign=top;resizable=0;rotatable=0;part=1;" parent="10" vertex="1">
                    <mxGeometry y="30" width="160" height="80" as="geometry"/>
                </mxCell>
                <mxCell id="13" value="users_blocked" style="swimlane;childLayout=stackLayout;horizontal=1;startSize=30;horizontalStack=0;rounded=1;fontSize=14;fontStyle=0;strokeWidth=2;resizeParent=0;resizeLast=1;shadow=0;dashed=0;align=center;" parent="1" vertex="1">
                    <mxGeometry x="90" y="310" width="160" height="100" as="geometry"/>
                </mxCell>
                <mxCell id="14" style="edgeStyle=none;html=1;" parent="13" source="15" target="13" edge="1">
                    <mxGeometry relative="1" as="geometry"/>
                </mxCell>
                <mxCell id="15" value="id INT PK&#10;users_id INT FK&#10;blocked_user INT FK" style="align=left;strokeColor=none;fillColor=none;spacingLeft=4;fontSize=12;verticalAlign=top;resizable=0;rotatable=0;part=1;" parent="13" vertex="1">
                    <mxGeometry y="30" width="160" height="70" as="geometry"/>
                </mxCell>
                <mxCell id="16" value="users" style="swimlane;childLayout=stackLayout;horizontal=1;startSize=30;horizontalStack=0;rounded=1;fontSize=14;fontStyle=0;strokeWidth=2;resizeParent=0;resizeLast=1;shadow=0;dashed=0;align=center;" parent="1" vertex="1">
                    <mxGeometry x="300" y="150" width="190" height="230" as="geometry"/>
                </mxCell>
                <mxCell id="17" style="edgeStyle=none;html=1;" parent="16" source="18" target="16" edge="1">
                    <mxGeometry relative="1" as="geometry"/>
                </mxCell>
                <mxCell id="18" value="id INT PK&#10;first_name VARCHAR&#10;last_name VARCHAR&#10;email VARCHAR&#10;pass_word VARCHAR&#10;birth_date DATE&#10;gender VARCHAR&#10;about_me VARCHAR&#10;is_active BOOLEAN&#10;date_inactive DATETIME&#10;is_deleted BOOLEAN&#10;role_id INT FK&#10;account_created DATETIME" style="align=left;strokeColor=none;fillColor=none;spacingLeft=4;fontSize=12;verticalAlign=top;resizable=0;rotatable=0;part=1;" parent="16" vertex="1">
                    <mxGeometry y="30" width="190" height="200" as="geometry"/>
                </mxCell>
                <mxCell id="25" value="posts" style="swimlane;childLayout=stackLayout;horizontal=1;startSize=30;horizontalStack=0;rounded=1;fontSize=14;fontStyle=0;strokeWidth=2;resizeParent=0;resizeLast=1;shadow=0;dashed=0;align=center;" parent="1" vertex="1">
                    <mxGeometry x="300" y="405" width="190" height="155" as="geometry"/>
                </mxCell>
                <mxCell id="26" style="edgeStyle=none;html=1;" parent="25" source="27" target="25" edge="1">
                    <mxGeometry relative="1" as="geometry"/>
                </mxCell>
                <mxCell id="27" value="id INT PK&#10;content VARCHAR&#10;date_created DATETIME&#10;post_type VARCHAR&#10;on_post_id INT FK&#10;is_visible BOOLEAN&#10;is_edited BOOLEAN&#10;users_id INT FK" style="align=left;strokeColor=none;fillColor=none;spacingLeft=4;fontSize=12;verticalAlign=top;resizable=0;rotatable=0;part=1;" parent="25" vertex="1">
                    <mxGeometry y="30" width="190" height="125" as="geometry"/>
                </mxCell>
                <mxCell id="56" value="" style="edgeStyle=elbowEdgeStyle;elbow=horizontal;endArrow=classic;html=1;entryX=1;entryY=0.099;entryDx=0;entryDy=0;entryPerimeter=0;exitX=1.007;exitY=0.573;exitDx=0;exitDy=0;exitPerimeter=0;" parent="25" source="27" target="27" edge="1">
                    <mxGeometry width="50" height="50" relative="1" as="geometry">
                        <mxPoint x="-20" y="125" as="sourcePoint"/>
                        <mxPoint x="30" y="75" as="targetPoint"/>
                        <Array as="points">
                            <mxPoint x="210" y="42"/>
                        </Array>
                    </mxGeometry>
                </mxCell>
                <mxCell id="34" value="conversations" style="swimlane;childLayout=stackLayout;horizontal=1;startSize=30;horizontalStack=0;rounded=1;fontSize=14;fontStyle=0;strokeWidth=2;resizeParent=0;resizeLast=1;shadow=0;dashed=0;align=center;" parent="1" vertex="1">
                    <mxGeometry x="540" y="160" width="160" height="90" as="geometry"/>
                </mxCell>
                <mxCell id="35" style="edgeStyle=none;html=1;" parent="34" source="36" target="34" edge="1">
                    <mxGeometry relative="1" as="geometry"/>
                </mxCell>
                <mxCell id="36" value="id INT PK&#10;date_created DATETIME&#10;creator_id INT FK" style="align=left;strokeColor=none;fillColor=none;spacingLeft=4;fontSize=12;verticalAlign=top;resizable=0;rotatable=0;part=1;" parent="34" vertex="1">
                    <mxGeometry y="30" width="160" height="60" as="geometry"/>
                </mxCell>
                <mxCell id="37" value="users_conversations" style="swimlane;childLayout=stackLayout;horizontal=1;startSize=30;horizontalStack=0;rounded=1;fontSize=14;fontStyle=0;strokeWidth=2;resizeParent=0;resizeLast=1;shadow=0;dashed=0;align=center;" parent="1" vertex="1">
                    <mxGeometry x="540" y="295" width="160" height="90" as="geometry"/>
                </mxCell>
                <mxCell id="38" style="edgeStyle=none;html=1;" parent="37" source="39" target="37" edge="1">
                    <mxGeometry relative="1" as="geometry"/>
                </mxCell>
                <mxCell id="39" value="id INT PK&#10;users_id INT FK&#10;conversations_id INT FK" style="align=left;strokeColor=none;fillColor=none;spacingLeft=4;fontSize=12;verticalAlign=top;resizable=0;rotatable=0;part=1;" parent="37" vertex="1">
                    <mxGeometry y="30" width="160" height="60" as="geometry"/>
                </mxCell>
                <mxCell id="40" value="messages" style="swimlane;childLayout=stackLayout;horizontal=1;startSize=30;horizontalStack=0;rounded=1;fontSize=14;fontStyle=0;strokeWidth=2;resizeParent=0;resizeLast=1;shadow=0;dashed=0;align=center;" parent="1" vertex="1">
                    <mxGeometry x="540" y="430" width="160" height="130" as="geometry"/>
                </mxCell>
                <mxCell id="41" style="edgeStyle=none;html=1;" parent="40" source="42" target="40" edge="1">
                    <mxGeometry relative="1" as="geometry"/>
                </mxCell>
                <mxCell id="42" value="id INT PK&#10;content VARCHAR&#10;date_created DATETIME&#10;sender_id INT FK&#10;conversations_id INT FK&#10;is_visible BOOLEAN" style="align=left;strokeColor=none;fillColor=none;spacingLeft=4;fontSize=12;verticalAlign=top;resizable=0;rotatable=0;part=1;" parent="40" vertex="1">
                    <mxGeometry y="30" width="160" height="100" as="geometry"/>
                </mxCell>
                <mxCell id="44" value="" style="edgeStyle=elbowEdgeStyle;elbow=horizontal;endArrow=classic;html=1;exitX=1;exitY=0.5;exitDx=0;exitDy=0;entryX=0;entryY=0.056;entryDx=0;entryDy=0;entryPerimeter=0;" parent="1" source="11" target="18" edge="1">
                    <mxGeometry width="50" height="50" relative="1" as="geometry">
                        <mxPoint x="240" y="260" as="sourcePoint"/>
                        <mxPoint x="290" y="210" as="targetPoint"/>
                    </mxGeometry>
                </mxCell>
                <mxCell id="45" value="" style="edgeStyle=elbowEdgeStyle;elbow=horizontal;endArrow=classic;html=1;" parent="1" edge="1">
                    <mxGeometry width="50" height="50" relative="1" as="geometry">
                        <mxPoint x="250" y="217" as="sourcePoint"/>
                        <mxPoint x="300" y="190" as="targetPoint"/>
                    </mxGeometry>
                </mxCell>
                <mxCell id="46" value="" style="edgeStyle=elbowEdgeStyle;elbow=horizontal;endArrow=classic;html=1;exitX=0.996;exitY=0.93;exitDx=0;exitDy=0;entryX=1;entryY=0.25;entryDx=0;entryDy=0;exitPerimeter=0;" parent="1" source="18" target="3" edge="1">
                    <mxGeometry width="50" height="50" relative="1" as="geometry">
                        <mxPoint x="270" y="250" as="sourcePoint"/>
                        <mxPoint x="320" y="210.08000000000004" as="targetPoint"/>
                        <Array as="points">
                            <mxPoint x="500" y="220"/>
                        </Array>
                    </mxGeometry>
                </mxCell>
                <mxCell id="47" value="" style="edgeStyle=elbowEdgeStyle;elbow=horizontal;endArrow=classic;html=1;exitX=1.008;exitY=0.619;exitDx=0;exitDy=0;exitPerimeter=0;" parent="1" source="15" edge="1">
                    <mxGeometry width="50" height="50" relative="1" as="geometry">
                        <mxPoint x="280" y="260" as="sourcePoint"/>
                        <mxPoint x="300" y="190" as="targetPoint"/>
                    </mxGeometry>
                </mxCell>
                <mxCell id="48" value="" style="edgeStyle=elbowEdgeStyle;elbow=horizontal;endArrow=classic;html=1;" parent="1" edge="1">
                    <mxGeometry width="50" height="50" relative="1" as="geometry">
                        <mxPoint x="250" y="369" as="sourcePoint"/>
                        <mxPoint x="296" y="190" as="targetPoint"/>
                    </mxGeometry>
                </mxCell>
                <mxCell id="49" value="" style="edgeStyle=elbowEdgeStyle;elbow=horizontal;endArrow=classic;html=1;exitX=0;exitY=0.75;exitDx=0;exitDy=0;entryX=0.996;entryY=0.074;entryDx=0;entryDy=0;entryPerimeter=0;" parent="1" source="36" target="18" edge="1">
                    <mxGeometry width="50" height="50" relative="1" as="geometry">
                        <mxPoint x="300" y="280" as="sourcePoint"/>
                        <mxPoint x="350" y="240.08000000000004" as="targetPoint"/>
                    </mxGeometry>
                </mxCell>
                <mxCell id="50" value="" style="edgeStyle=elbowEdgeStyle;elbow=horizontal;endArrow=classic;html=1;exitX=0;exitY=0.5;exitDx=0;exitDy=0;entryX=1.014;entryY=0.074;entryDx=0;entryDy=0;entryPerimeter=0;" parent="1" source="39" target="18" edge="1">
                    <mxGeometry width="50" height="50" relative="1" as="geometry">
                        <mxPoint x="310" y="290" as="sourcePoint"/>
                        <mxPoint x="360" y="250.08000000000004" as="targetPoint"/>
                    </mxGeometry>
                </mxCell>
                <mxCell id="51" value="" style="edgeStyle=elbowEdgeStyle;elbow=horizontal;endArrow=classic;html=1;exitX=1;exitY=0.75;exitDx=0;exitDy=0;" parent="1" source="39" edge="1">
                    <mxGeometry width="50" height="50" relative="1" as="geometry">
                        <mxPoint x="320" y="300" as="sourcePoint"/>
                        <mxPoint x="700" y="200" as="targetPoint"/>
                        <Array as="points">
                            <mxPoint x="730" y="285"/>
                        </Array>
                    </mxGeometry>
                </mxCell>
                <mxCell id="52" value="" style="edgeStyle=elbowEdgeStyle;elbow=horizontal;endArrow=classic;html=1;exitX=1.008;exitY=0.673;exitDx=0;exitDy=0;entryX=1.025;entryY=0.144;entryDx=0;entryDy=0;entryPerimeter=0;exitPerimeter=0;" parent="1" source="42" target="36" edge="1">
                    <mxGeometry width="50" height="50" relative="1" as="geometry">
                        <mxPoint x="330" y="310" as="sourcePoint"/>
                        <mxPoint x="380" y="270.08000000000004" as="targetPoint"/>
                        <Array as="points">
                            <mxPoint x="740" y="360"/>
                        </Array>
                    </mxGeometry>
                </mxCell>
                <mxCell id="53" value="" style="edgeStyle=elbowEdgeStyle;elbow=horizontal;endArrow=classic;html=1;exitX=-0.012;exitY=0.593;exitDx=0;exitDy=0;entryX=1.007;entryY=0.085;entryDx=0;entryDy=0;entryPerimeter=0;exitPerimeter=0;" parent="1" source="42" target="18" edge="1">
                    <mxGeometry width="50" height="50" relative="1" as="geometry">
                        <mxPoint x="340" y="320" as="sourcePoint"/>
                        <mxPoint x="390" y="280.08000000000004" as="targetPoint"/>
                        <Array as="points">
                            <mxPoint x="510" y="360"/>
                        </Array>
                    </mxGeometry>
                </mxCell>
                <mxCell id="54" value="" style="edgeStyle=elbowEdgeStyle;elbow=horizontal;endArrow=classic;html=1;exitX=-0.004;exitY=0.925;exitDx=0;exitDy=0;entryX=-0.018;entryY=0.063;entryDx=0;entryDy=0;entryPerimeter=0;exitPerimeter=0;" parent="1" source="27" target="18" edge="1">
                    <mxGeometry width="50" height="50" relative="1" as="geometry">
                        <mxPoint x="350" y="330" as="sourcePoint"/>
                        <mxPoint x="400" y="290.08000000000004" as="targetPoint"/>
                        <Array as="points">
                            <mxPoint x="280" y="370"/>
                        </Array>
                    </mxGeometry>
                </mxCell>
            </root>
        </mxGraphModel>
    </diagram>
</mxfile>